<?xml version="1.0" encoding="UTF-8" standalone="no"?>
<!DOCTYPE svg PUBLIC "-//W3C//DTD SVG 1.1//EN" "http://www.w3.org/Graphics/SVG/1.1/DTD/svg11.dtd">
<svg width="100%" height="100%" viewBox="0 0 600 371" version="1.1" xmlns="http://www.w3.org/2000/svg" xmlns:xlink="http://www.w3.org/1999/xlink" xml:space="preserve" xmlns:serif="http://www.serif.com/" style="fill-rule:evenodd;clip-rule:evenodd;stroke-linejoin:round;stroke-miterlimit:2;">
    <g transform="matrix(1,0,0,1,-96.0646,-376.712)">
        <g transform="matrix(0.997871,-0.0652172,0.0652172,0.997871,-32.7216,74.1813)">
            <g transform="matrix(0.861575,0,0,1,10.5831,77.3704)">
                <path d="M253.856,288.82C253.856,285.708 250.928,283.186 247.317,283.186C232.931,283.186 198.686,283.186 184.417,283.186C180.874,283.186 178.003,285.66 178.003,288.712C178.003,299.123 178.003,320.607 178.003,320.607L253.856,320.607L253.856,288.82Z" style="fill:rgb(228,228,228);"/>
            </g>
            <g transform="matrix(1.08569,0,0,1,48.6898,77.3704)">
                <path d="M253.856,288.82C253.856,287.326 253.309,285.893 252.336,284.836C251.363,283.779 250.043,283.186 248.667,283.186C234.776,283.186 196.868,283.186 183.093,283.186C180.281,283.186 178.003,285.66 178.003,288.712C178.003,299.123 178.003,320.607 178.003,320.607L253.856,320.607L253.856,288.82Z" style="fill:rgb(228,228,228);"/>
            </g>
        </g>
        <g transform="matrix(0.789804,-0.0516188,0.0652172,0.997871,127.646,167.272)">
            <rect x="522.541" y="254.791" width="117.5" height="58" style="fill:url(#_Radial1);"/>
        </g>
        <g id="ogolny-zarys" serif:id="ogolny zarys" transform="matrix(0.997871,-0.0652172,0.0652172,0.997871,-32.7216,74.1813)">
            <path d="M673.072,662.382C673.072,674.143 663.524,683.691 651.762,683.692L148.238,683.692C136.477,683.692 126.928,674.143 126.928,662.382L126.928,648.918L673.072,648.918L673.072,662.382ZM126.928,429.918L126.928,400.576C126.928,388.816 136.476,379.267 148.238,379.267L362.928,379.267L362.928,366.146C362.928,354.964 372.006,345.886 383.188,345.886L652.812,345.886C663.994,345.886 673.072,354.964 673.072,366.146L673.072,429.918L126.928,429.918Z" style="fill:rgb(247,247,247);"/>
        </g>
        <g transform="matrix(0.997871,-0.0652172,0.0664084,1.0161,-33.3641,64.3499)">
            <path d="M673.072,648.918L654.4,648.918L654.4,429.918L673.072,429.918L673.072,648.918ZM126.928,648.918L126.928,429.918L145.6,429.918L145.6,648.918L126.928,648.918Z" style="fill:rgb(138,141,166);"/>
        </g>
        <g transform="matrix(-1.18485,0.0774377,0.0774377,1.18485,770.042,-87.5242)">
            <path d="M102.968,462.81L124.668,462.81L124.668,481.41L102.968,481.41C97.835,481.41 93.668,477.242 93.668,472.11C93.668,466.977 97.835,462.81 102.968,462.81ZM103.418,466.36C106.591,466.36 109.168,468.936 109.168,472.11C109.168,475.283 106.591,477.86 103.418,477.86C100.244,477.86 97.668,475.283 97.668,472.11C97.668,468.936 100.244,466.36 103.418,466.36Z" style="fill:rgb(138,141,166);"/>
        </g>
        <g transform="matrix(1.18485,-0.0774377,0.0774377,1.18485,-51.4533,-33.8342)">
            <path d="M102.968,462.81L124.668,462.81L124.668,481.41L102.968,481.41C97.835,481.41 93.668,477.242 93.668,472.11C93.668,466.977 97.835,462.81 102.968,462.81ZM103.418,466.36C106.591,466.36 109.168,468.936 109.168,472.11C109.168,475.283 106.591,477.86 103.418,477.86C100.244,477.86 97.668,475.283 97.668,472.11C97.668,468.936 100.244,466.36 103.418,466.36Z" style="fill:rgb(138,141,166);"/>
        </g>
        <g transform="matrix(0.936947,-0.0612354,0.0664084,1.0161,-8.99429,62.7572)">
            <rect x="126.928" y="429.918" width="546.144" height="219" style="fill:rgb(103,107,136);"/>
        </g>
        <g transform="matrix(1.35288,-0.0884195,0.0884195,1.35288,42.6698,64.4338)">
            <circle cx="154.267" cy="300.857" r="8.667" style="fill:rgb(228,228,228);"/>
        </g>
        <g transform="matrix(0.834758,-0.0545567,0.0545567,0.834758,132.787,215.092)">
            <circle cx="154.267" cy="300.857" r="8.667" style="fill:rgb(212,212,212);"/>
        </g>
        <g transform="matrix(0.997871,-0.0652172,0.0652172,0.997871,-34.4271,68.5305)">
            <path d="M490.713,377.533C490.713,373.9 487.764,370.951 484.131,370.951L400.629,370.951C396.996,370.951 394.046,373.9 394.046,377.533L394.046,408.251C394.046,411.884 396.996,414.833 400.629,414.833L484.131,414.833C487.764,414.833 490.713,411.884 490.713,408.251L490.713,377.533Z" style="fill:url(#_Linear2);"/>
        </g>
        <g transform="matrix(0.997871,-0.0652172,0.0652172,0.997871,-32.7216,74.1813)">
            <g transform="matrix(1,0,0,1,-2,6)">
                <rect x="405.046" y="359.201" width="2.667" height="32.132" style="fill:rgb(211,211,211);"/>
            </g>
            <g transform="matrix(1,0,0,1,63.9823,6)">
                <rect x="405.046" y="359.201" width="2.667" height="32.132" style="fill:rgb(211,211,211);"/>
            </g>
            <g transform="matrix(1,0,0,1,6.23093,6)">
                <rect x="405.046" y="359.201" width="2.667" height="32.132" style="fill:rgb(211,211,211);"/>
            </g>
            <g transform="matrix(1,0,0,1,47.4643,6)">
                <rect x="405.046" y="359.201" width="2.667" height="32.132" style="fill:rgb(211,211,211);"/>
            </g>
            <g transform="matrix(1,0,0,1,22.8132,6)">
                <rect x="405.046" y="359.201" width="2.667" height="32.132" style="fill:rgb(211,211,211);"/>
            </g>
            <g transform="matrix(1,0,0,1,72.2132,6)">
                <rect x="405.046" y="359.201" width="2.667" height="32.132" style="fill:rgb(211,211,211);"/>
            </g>
            <g transform="matrix(1,0,0,1,14.5341,6)">
                <rect x="405.046" y="359.201" width="2.667" height="32.132" style="fill:rgb(211,211,211);"/>
            </g>
            <g transform="matrix(1,0,0,1,55.7675,6)">
                <rect x="405.046" y="359.201" width="2.667" height="32.132" style="fill:rgb(211,211,211);"/>
            </g>
            <g transform="matrix(1,0,0,1,39.2831,6)">
                <rect x="405.046" y="359.201" width="2.667" height="32.132" style="fill:rgb(211,211,211);"/>
            </g>
            <g transform="matrix(1,0,0,1,30.9844,6)">
                <rect x="405.046" y="359.201" width="2.667" height="32.132" style="fill:rgb(211,211,211);"/>
            </g>
        </g>
        <g transform="matrix(0.936771,-0.061224,0.0684655,1.04757,8.45665,52.1664)">
            <rect x="564.541" y="365.201" width="88.5" height="43.882" style="fill:rgb(95,99,126);"/>
        </g>
        <g transform="matrix(0.795165,-0.0519691,0.0512645,0.784384,101.324,148.423)">
            <rect x="564.541" y="365.201" width="88.5" height="43.882" style="fill:rgb(138,141,166);"/>
        </g>
        <g transform="matrix(0.734601,-0.0480108,0.0435718,0.66668,141.312,191.501)">
            <rect x="564.541" y="365.201" width="88.5" height="43.882" style="fill:rgb(95,99,126);"/>
        </g>
        <g transform="matrix(0.997871,-0.0652172,0.0652172,0.997871,-32.7216,74.1813)">
            <g transform="matrix(1.15804,0,0,1.15804,109.283,324.075)">
                <circle cx="297.179" cy="184.599" r="102.821" style="fill:rgb(253,253,253);"/>
            </g>
            <g transform="matrix(0.987846,0,0,0.987846,159.862,355.494)">
                <circle cx="297.179" cy="184.599" r="102.821" style="fill:rgb(228,228,228);"/>
            </g>
            <g transform="matrix(0.87357,0,0,0.87357,193.823,376.589)">
                <circle cx="297.179" cy="184.599" r="102.821" style="fill:rgb(77,80,101);"/>
            </g>
            <g transform="matrix(0.618271,0,0,0.618271,269.692,423.717)">
                <circle cx="297.179" cy="184.599" r="102.821" style="fill:rgb(127,131,177);"/>
            </g>
            <g transform="matrix(0.760508,-0.142136,0.142136,0.760508,133.831,485.459)">
                <path d="M350.586,188.827C335.793,177.184 326.287,159.118 326.287,138.849C326.287,103.763 354.772,75.278 389.858,75.278C409.802,75.278 427.613,84.482 439.272,98.871C428.457,90.358 414.817,85.278 400,85.278C364.914,85.278 336.429,113.763 336.429,148.849C336.429,163.991 341.734,177.904 350.586,188.827Z" style="fill:rgb(168,171,202);"/>
            </g>
        </g>
    </g>
    <defs>
        <radialGradient id="_Radial1" cx="0" cy="0" r="1" gradientUnits="userSpaceOnUse" gradientTransform="matrix(59.1362,28.3783,-35.6755,58.2409,581.291,283.791)"><stop offset="0" style="stop-color:rgb(204,204,204);stop-opacity:1"/><stop offset="1" style="stop-color:rgb(228,228,228);stop-opacity:1"/></radialGradient>
        <linearGradient id="_Linear2" x1="0" y1="0" x2="1" y2="0" gradientUnits="userSpaceOnUse" gradientTransform="matrix(96.6667,0,0,43.8824,394.046,392.892)"><stop offset="0" style="stop-color:rgb(219,219,219);stop-opacity:1"/><stop offset="1" style="stop-color:rgb(220,220,220);stop-opacity:1"/></linearGradient>
    </defs>
</svg>
