<?xml version="1.0" encoding="UTF-8" standalone="no"?><!DOCTYPE svg PUBLIC "-//W3C//DTD SVG 1.1//EN" "http://www.w3.org/Graphics/SVG/1.1/DTD/svg11.dtd"><svg width="100%" height="100%" viewBox="0 0 197 341" version="1.1" xmlns="http://www.w3.org/2000/svg" xmlns:xlink="http://www.w3.org/1999/xlink" xml:space="preserve" xmlns:serif="http://www.serif.com/" style="fill-rule:evenodd;clip-rule:evenodd;stroke-linejoin:round;stroke-miterlimit:1.41421;"><g><path d="M42.269,240.909c-0.203,-3.105 -2.884,-5.458 -5.989,-5.255c-3.044,0.199 -6.79,0.444 -9.818,0.642c-1.462,0.095 -2.827,0.768 -3.794,1.87c-0.966,1.101 -1.455,2.542 -1.36,4.005c0.206,3.152 0.424,6.483 0.424,6.483l20.954,-1.369c0,0 -0.213,-3.257 -0.417,-6.376Z" style="fill:#e4e4e4;"/><path d="M72.729,238.918c-0.098,-1.491 -0.783,-2.882 -1.907,-3.868c-1.123,-0.985 -2.592,-1.484 -4.083,-1.387c-4.505,0.295 -10.791,0.706 -15.268,0.998c-1.462,0.096 -2.827,0.768 -3.794,1.87c-0.966,1.102 -1.456,2.543 -1.36,4.005c0.206,3.152 0.424,6.484 0.424,6.484l26.404,-1.726c0,0 -0.212,-3.256 -0.416,-6.376Z" style="fill:#e4e4e4;"/></g><path d="M180.119,225.476l-29.818,1.949l1.215,18.596l29.818,-1.949l-1.215,-18.596Z" style="fill:url(#_Radial1);"/><path id="ogolny-zarys" serif:id="ogolny zarys" d="M190.512,322.761c0.246,3.771 -2.615,7.032 -6.386,7.279l-161.443,10.551c-3.771,0.246 -7.033,-2.615 -7.279,-6.386l-0.282,-4.317l175.108,-11.444l0.282,4.317Zm-179.98,-63.09l-0.614,-9.408c-0.247,-3.77 2.614,-7.032 6.385,-7.279l68.836,-4.498l-0.275,-4.207c-0.234,-3.586 2.486,-6.686 6.071,-6.921l86.449,-5.65c3.585,-0.234 6.686,2.486 6.92,6.071l1.337,20.448l-175.109,11.444Z" style="fill:#f7f7f7;"/><path d="M190.272,319.085l-5.987,0.391l-4.673,-71.499l5.987,-0.392l4.673,71.5Zm-175.109,11.444l-4.673,-71.499l5.987,-0.392l4.673,71.5l-5.987,0.391Z" style="fill:#8a8da6;"/><path d="M191.078,251.286l-8.261,0.54l0.463,7.082l8.261,-0.54c1.954,-0.128 3.437,-1.818 3.309,-3.772c-0.127,-1.954 -1.818,-3.437 -3.772,-3.31l0,0Zm-0.083,1.363c-1.208,0.079 -2.125,1.124 -2.046,2.332c0.079,1.208 1.124,2.125 2.332,2.046c1.209,-0.079 2.125,-1.124 2.046,-2.332c-0.079,-1.208 -1.124,-2.125 -2.332,-2.046Z" style="fill:#8a8da6;"/><path d="M5.524,263.414l8.262,-0.54l0.462,7.081l-8.261,0.54c-1.954,0.127 -3.644,-1.355 -3.772,-3.309c-0.128,-1.955 1.355,-3.645 3.309,-3.772l0,0Zm0.26,1.34c1.208,-0.079 2.253,0.838 2.332,2.046c0.079,1.208 -0.838,2.253 -2.046,2.332c-1.208,0.079 -2.253,-0.838 -2.332,-2.046c-0.079,-1.208 0.838,-2.253 2.046,-2.332Z" style="fill:#8a8da6;"/><path d="M180.253,247.935l-164.417,10.745l4.673,71.5l164.417,-10.746l-4.673,-71.499Z" style="fill:#676b88;"/><path d="M60.411,243.987c2.08,-0.136 3.878,1.442 4.014,3.521c0.136,2.079 -1.442,3.878 -3.521,4.014c-2.079,0.136 -3.878,-1.442 -4.014,-3.521c-0.136,-2.08 1.442,-3.878 3.521,-4.014Z" style="fill:#e4e4e4;"/><path d="M60.506,245.43c1.283,-0.084 2.392,0.89 2.476,2.172c0.084,1.283 -0.89,2.393 -2.172,2.477c-1.283,0.084 -2.393,-0.89 -2.477,-2.173c-0.084,-1.283 0.89,-2.392 2.173,-2.476Z" style="fill:#d4d4d4;"/><path d="M125.526,233.436c-0.076,-1.164 -1.084,-2.048 -2.249,-1.972l-26.773,1.75c-1.164,0.076 -2.048,1.083 -1.972,2.248l0.644,9.849c0.076,1.165 1.083,2.049 2.248,1.972l26.773,-1.749c1.165,-0.076 2.049,-1.084 1.973,-2.249l-0.644,-9.849Z" style="fill:url(#_Linear2);"/><g><path d="M98.562,233.079l-0.855,0.056l0.673,10.302l0.855,-0.055l-0.673,-10.303Z" style="fill:#d3d3d3;"/><path d="M119.718,231.696l-0.855,0.056l0.673,10.303l0.855,-0.056l-0.673,-10.303Z" style="fill:#d3d3d3;"/><path d="M101.201,232.907l-0.855,0.056l0.674,10.302l0.855,-0.056l-0.674,-10.302Z" style="fill:#d3d3d3;"/><path d="M114.422,232.043l-0.855,0.055l0.673,10.303l0.855,-0.056l-0.673,-10.302Z" style="fill:#d3d3d3;"/><path d="M106.518,232.559l-0.855,0.056l0.673,10.303l0.855,-0.056l-0.673,-10.303Z" style="fill:#d3d3d3;"/><path d="M122.357,231.524l-0.855,0.056l0.673,10.302l0.855,-0.056l-0.673,-10.302Z" style="fill:#d3d3d3;"/><path d="M103.863,232.733l-0.855,0.056l0.674,10.302l0.855,-0.056l-0.674,-10.302Z" style="fill:#d3d3d3;"/><path d="M117.084,231.869l-0.855,0.055l0.673,10.303l0.855,-0.056l-0.673,-10.302Z" style="fill:#d3d3d3;"/><path d="M111.799,232.214l-0.855,0.056l0.673,10.302l0.855,-0.055l-0.673,-10.303Z" style="fill:#d3d3d3;"/><path d="M109.138,232.388l-0.855,0.056l0.673,10.302l0.855,-0.056l-0.673,-10.302Z" style="fill:#d3d3d3;"/></g><path d="M178.654,227.493l-26.638,1.741l0.965,14.77l26.638,-1.741l-0.965,-14.77Z" style="fill:#5f637e;"/><path d="M176.762,229.48l-22.612,1.478l0.723,11.059l22.612,-1.478l-0.723,-11.059Z" style="fill:#8a8da6;"/><path d="M175.999,230.34l-20.889,1.365l0.614,9.4l20.889,-1.365l-0.614,-9.4Z" style="fill:#5f637e;"/><g><path d="M114.984,249.257c21.071,-1.377 39.295,14.612 40.673,35.683c1.377,21.07 -14.612,39.295 -35.683,40.672c-21.07,1.377 -39.295,-14.611 -40.672,-35.682c-1.377,-21.071 14.611,-39.295 35.682,-40.673Z" style="fill:#fdfdfd;"/><path d="M115.351,254.868c17.974,-1.174 33.52,12.465 34.695,30.438c1.174,17.974 -12.465,33.521 -30.438,34.695c-17.974,1.175 -33.521,-12.464 -34.695,-30.438c-1.175,-17.974 12.464,-33.52 30.438,-34.695Z" style="fill:#e4e4e4;"/><path d="M115.597,258.636c15.895,-1.039 29.642,11.022 30.681,26.917c1.039,15.894 -11.022,29.642 -26.917,30.681c-15.894,1.039 -29.642,-11.022 -30.681,-26.917c-1.039,-15.895 11.022,-29.642 26.917,-30.681Z" style="fill:#4d5065;"/><path d="M116.147,267.052c11.249,-0.735 20.98,7.801 21.715,19.051c0.735,11.249 -7.801,20.979 -19.051,21.715c-11.249,0.735 -20.979,-7.802 -21.715,-19.051c-0.735,-11.249 7.801,-20.98 19.051,-21.715Z" style="fill:#7f83b1;"/><path d="M109.966,301.251c-4.279,-1.894 -7.68,-5.661 -8.926,-10.543c-2.159,-8.451 2.95,-17.064 11.401,-19.222c4.804,-1.227 9.66,-0.105 13.353,2.643c-3.128,-1.385 -6.726,-1.77 -10.295,-0.858c-8.451,2.158 -13.56,10.771 -11.402,19.222c0.932,3.647 3.065,6.672 5.869,8.758Z" style="fill:#a8abca;"/></g><path d="M3.281,254.921c-1.838,-0.162 -3.281,-1.708 -3.281,-3.587c0,-1.988 1.614,-3.602 3.601,-3.602c1.988,0 3.602,1.614 3.602,3.602c0,1.598 -1.043,2.954 -2.485,3.424l1.476,10.555c0.038,0.277 -0.155,0.533 -0.431,0.572l-0.43,0.06c-0.277,0.038 -0.533,-0.155 -0.571,-0.431l-1.481,-10.593Zm1.265,-1.397c0.847,-0.366 1.44,-1.209 1.44,-2.19c0,-1.316 -1.068,-2.385 -2.385,-2.385c-1.316,0 -2.384,1.069 -2.384,2.385c0,1.146 0.81,2.104 1.889,2.333l-0.035,-0.251c-0.039,-0.277 0.154,-0.533 0.431,-0.571l0.429,-0.06c0.277,-0.039 0.533,0.154 0.572,0.431l0.043,0.308Z" style="fill:#e4e4e4;"/><path d="M191.811,242.801c-1.768,-0.527 -2.873,-2.329 -2.497,-4.171c0.398,-1.948 2.302,-3.206 4.249,-2.808c1.948,0.398 3.206,2.302 2.808,4.249c-0.32,1.566 -1.613,2.686 -3.119,2.858l-0.667,10.637c-0.017,0.279 -0.258,0.491 -0.536,0.474l-0.433,-0.028c-0.279,-0.017 -0.491,-0.258 -0.474,-0.536l0.669,-10.675Zm1.519,-1.116c0.903,-0.189 1.653,-0.896 1.849,-1.857c0.263,-1.29 -0.57,-2.551 -1.859,-2.814c-1.29,-0.263 -2.551,0.57 -2.814,1.859c-0.229,1.123 0.373,2.225 1.384,2.664l0.016,-0.253c0.017,-0.278 0.258,-0.49 0.537,-0.473l0.433,0.027c0.278,0.018 0.49,0.258 0.473,0.537l-0.019,0.31Z" style="fill:#e4e4e4;"/><path d="M1.883,249.727l5.453,-249.727l3.809,0.399l-5.464,250.21c-0.405,-1.554 -1.169,-2.602 -2.044,-2.602c-0.697,0 -1.323,0.665 -1.754,1.72Z" style="fill:#af9090;"/><path d="M190.743,237.976l-39.635,-237.642l3.814,-0.334l39.711,238.102c-0.678,-1.396 -1.618,-2.246 -2.477,-2.083c-0.684,0.13 -1.18,0.877 -1.413,1.957Z" style="fill:#af9090;"/><defs><radialGradient id="_Radial1" cx="0" cy="0" r="1" gradientUnits="userSpaceOnUse" gradientTransform="matrix(15.6018,8.11804,-7.83303,19.2653,165.817,235.749)"><stop offset="0" style="stop-color:#ccc;stop-opacity:1"/><stop offset="1" style="stop-color:#e4e4e4;stop-opacity:1"/></radialGradient><linearGradient id="_Linear2" x1="0" y1="0" x2="1" y2="0" gradientUnits="userSpaceOnUse" gradientTransform="matrix(30.9939,-2.02565,0.919554,14.0698,94.8538,240.386)"><stop offset="0" style="stop-color:#dbdbdb;stop-opacity:1"/><stop offset="1" style="stop-color:#dcdcdc;stop-opacity:1"/></linearGradient></defs></svg>