<?xml version="1.0" encoding="UTF-8" standalone="no"?>
<!DOCTYPE svg PUBLIC "-//W3C//DTD SVG 1.1//EN" "http://www.w3.org/Graphics/SVG/1.1/DTD/svg11.dtd">
<svg width="100%" height="100%" viewBox="0 0 298 300" version="1.1" xmlns="http://www.w3.org/2000/svg" xmlns:xlink="http://www.w3.org/1999/xlink" xml:space="preserve" xmlns:serif="http://www.serif.com/" style="fill-rule:evenodd;clip-rule:evenodd;stroke-linejoin:round;stroke-miterlimit:2;">
    <g transform="matrix(6.12323e-17,1,-1,6.12323e-17,298,0.2996)">
        <rect x="99.9" y="0" width="199.8" height="199.8" style="fill:none;"/>
    </g>
    <g transform="matrix(6.12323e-17,1,-1,6.12323e-17,298,0.2996)">
        <rect x="0" y="0" width="99.9" height="99.9" style="fill:none;"/>
    </g>
    <rect x="199.8" y="199.8" width="99.9" height="99.9" style="fill:none;"/>
    <g transform="matrix(6.12323e-17,1,-1,6.12323e-17,298,0.2996)">
        <path d="M199.7,0L199.7,50L249.7,50L249.7,100L299.7,100L299.7,0L199.7,0Z" style="fill:rgb(65,117,255);fill-rule:nonzero;"/>
    </g>
    <g transform="matrix(6.12323e-17,1,-1,6.12323e-17,298,0.2996)">
        <rect x="199.89" y="50.001" width="49.81" height="50.098" style="fill:rgb(210,199,255);fill-rule:nonzero;"/>
    </g>
    <g transform="matrix(6.12323e-17,1,-1,6.12323e-17,298,0.2996)">
        <rect x="199.89" y="100.099" width="49.81" height="50.097" style="fill:rgb(235,244,253);fill-opacity:0.8;fill-rule:nonzero;"/>
    </g>
    <g transform="matrix(6.12323e-17,1,-1,6.12323e-17,298,0.2996)">
        <rect x="249.9" y="150.196" width="49.8" height="50.098" style="fill:rgb(235,244,253);fill-opacity:0.5;fill-rule:nonzero;"/>
    </g>
    <g transform="matrix(6.12323e-17,1,-1,6.12323e-17,298,0.2996)">
        <rect x="50.09" y="100.099" width="49.8" height="50.097" style="fill:rgb(235,244,253);fill-opacity:0.5;fill-rule:nonzero;"/>
    </g>
    <g transform="matrix(6.12323e-17,1,-1,6.12323e-17,298,0.2996)">
        <rect x="99.89" y="0" width="49.81" height="50.098" style="fill:rgb(235,244,253);fill-opacity:0.8;fill-rule:nonzero;"/>
    </g>
    <g transform="matrix(6.12323e-17,1,-1,6.12323e-17,298,0.2996)">
        <path d="M199.7,50L149.7,50L199.7,0L199.7,50Z" style="fill:rgb(210,199,255);fill-rule:nonzero;"/>
    </g>
    <g transform="matrix(6.12323e-17,1,-1,6.12323e-17,298,0.2996)">
        <path d="M249.4,150L249.4,100L299.4,100L249.4,150Z" style="fill:rgb(210,199,255);fill-rule:nonzero;"/>
    </g>
</svg>
