<?xml version="1.0" encoding="UTF-8" standalone="no"?>
<!DOCTYPE svg PUBLIC "-//W3C//DTD SVG 1.1//EN" "http://www.w3.org/Graphics/SVG/1.1/DTD/svg11.dtd">
<svg width="100%" height="100%" viewBox="0 0 153 77" version="1.1" xmlns="http://www.w3.org/2000/svg" xmlns:xlink="http://www.w3.org/1999/xlink" xml:space="preserve" xmlns:serif="http://www.serif.com/" style="fill-rule:evenodd;clip-rule:evenodd;stroke-linecap:round;stroke-linejoin:round;stroke-miterlimit:1.5;">
    <g transform="matrix(1,0,0,1,-0.524752,-1.52475)">
        <g transform="matrix(0.857143,0,0,0.8,7,8)">
            <path d="M0,80L28,0" style="fill:none;stroke:white;stroke-width:15.62px;"/>
        </g>
        <g transform="matrix(-0.857143,0,0,0.8,55,8)">
            <path d="M0,80L28,0" style="fill:none;stroke:white;stroke-width:15.62px;"/>
        </g>
        <g transform="matrix(0.857143,0,0,0.8,55,8)">
            <path d="M0,80L28,0" style="fill:none;stroke:white;stroke-width:15.62px;"/>
        </g>
        <g transform="matrix(-0.857143,0,0,0.8,103,8)">
            <path d="M0,80L28,0" style="fill:none;stroke:white;stroke-width:15.62px;"/>
        </g>
        <g transform="matrix(0.857143,0,0,0.8,103.367,8)">
            <path d="M0,80L21.739,17.89" style="fill:none;stroke:white;stroke-width:15.62px;"/>
        </g>
        <g transform="matrix(0.857143,0,0,0.8,132.28,8)">
            <path d="M0,80L17.173,30.934" style="fill:none;stroke:white;stroke-width:15.62px;"/>
        </g>
    </g>
</svg>
